<svg xmlns="http://www.w3.org/2000/svg" xmlns:xlink="http://www.w3.org/1999/xlink" fill="none" version="1.1" width="15.455828666687012" height="18.201377868652344" viewBox="0 0 15.455828666687012 18.201377868652344"><g transform="matrix(-1,0,0,1,30.411657333374023,0)"><path d="M29.955379666687012,16.686539L22.337551166687014,9.0687084L29.955379666687012,1.4508791C30.230415666687012,1.1758441899999998,30.230415666687012,0.7281127000000001,29.955379666687012,0.45627594C29.680343666687012,0.181241035,29.23261266668701,0.181241035,28.960775666687013,0.45627594L20.91120626668701,8.505846C20.757698066687013,8.6593542,20.69053836668701,8.8672295,20.70972726668701,9.0687084C20.69053836668701,9.2701874,20.757698066687013,9.4780626,20.91120626668701,9.6315699L28.96077766668701,17.681141C29.23581266668701,17.956177,29.68354366668701,17.956177,29.95538166668701,17.681141C30.230415666687012,17.409306,30.230415666687012,16.961571,29.955379666687012,16.686539ZM24.45467946668701,16.7505L16.836851166687012,9.1326694L24.45467946668701,1.5148401C24.72971536668701,1.23980522,24.72971536668701,0.79207373,24.45467946668701,0.52023697C24.179643666687014,0.2452020645,23.73191256668701,0.2452020645,23.46007536668701,0.52023697L15.410506246687012,8.569808C15.256998061687012,8.7233162,15.189838409687011,8.9311914,15.209027290387011,9.1326704C15.189838409687011,9.3341494,15.256998061687012,9.5420256,15.410506246687012,9.6955328L23.46007536668701,17.745102C23.735111266687014,18.020138,24.18284226668701,18.020138,24.45467946668701,17.745102C24.72971536668701,17.473267,24.72971536668701,17.025536,24.45467946668701,16.7505Z" fill="#FF6B35" fill-opacity="1" style="mix-blend-mode:passthrough"/><path d="M30.131130666687014,17.858957Q30.132160666687014,17.857922,30.13318966668701,17.85688Q30.411656666687012,17.580204,30.411656666687012,17.185038Q30.411656666687012,16.789259,30.13215666668701,16.509762L22.69110536668701,9.0687084L30.13215666668701,1.6276559Q30.411656666687012,1.3481562,30.411656666687012,0.95237827Q30.411656666687012,0.55574203,30.13112066668701,0.278468346Q29.85265666668701,-2.399999999846969e-7,29.45687866668701,-2.399999999846969e-7Q29.06024266668701,-2.399999999846969e-7,28.782967666687014,0.280535907L20.734429866687012,8.3290691Q20.42667626668701,8.6368217,20.458840866687012,9.0687084Q20.42667626668701,9.500596,20.734430266687013,9.8083467L28.78400166668701,17.857918Q29.063500666687013,18.137419,29.459278666687013,18.137419Q29.854442666687014,18.137419,30.131130666687014,17.858957ZM24.630428266687012,17.92292Q24.631458266687012,17.921885,24.63248726668701,17.920843Q24.91095736668701,17.644165,24.91095736668701,17.249001Q24.91095736668701,16.853224,24.63145636668701,16.573723L17.19040476668701,9.1326694L24.63145636668701,1.6916169Q24.91095736668701,1.4121166,24.91095736668701,1.0163392999999998Q24.91095736668701,0.6197039200000001,24.630419766687012,0.342429355Q24.351956366687013,0.06396078999999999,23.95617866668701,0.06396078999999999Q23.559542666687012,0.06396078999999999,23.28226756668701,0.344496757L15.233729546687012,8.3930311Q14.925976306687012,8.7007847,14.958141166687012,9.1326704Q14.925975976687011,9.5645571,15.233730098687012,9.8723097L23.28329846668701,17.921879Q23.562798466687013,18.20138,23.95857716668701,18.20138Q24.35374066668701,18.20138,24.630428266687012,17.92292ZM29.911656666687012,17.185038Q29.911656666687012,17.372854,29.779641666687013,17.503332L29.77757366668701,17.505402Q29.64709166668701,17.637419,29.459278666687013,17.637419Q29.27060866668701,17.637419,29.13755466668701,17.504364L21.08798316668701,9.454793Q20.938340166687013,9.305151,20.958600966687012,9.092411L20.960858866687012,9.0687084L20.958600966687012,9.0450058Q20.938340166687013,8.8322668,21.08798356668701,8.6826229L29.138583666687012,0.632016Q29.26906466668701,0.49999978,29.45687866668701,0.49999978Q29.64554966668701,0.49999979,29.779640666687012,0.63408336Q29.911656666687012,0.76456493,29.911656666687012,0.95237827Q29.911656666687012,1.1410497400000001,29.77860366668701,1.2741024L21.98399826668701,9.0687084L29.77860366668701,16.863316Q29.911656666687012,16.996368,29.911656666687012,17.185038ZM24.41095636668701,17.249001Q24.41095636668701,17.436815,24.27894016668701,17.567295L24.276872666687012,17.569363Q24.146390866687014,17.70138,23.95857716668701,17.70138Q23.769906066687014,17.70138,23.63685226668701,17.568327L15.587282356687012,9.5187559Q15.437639686687012,9.3691139,15.457901086687011,9.156373L15.460158586687012,9.1326704L15.457901146687012,9.1089678Q15.437639786687011,8.8962278,15.587282956687012,8.7465849L23.63788226668701,0.69597718Q23.768363966687012,0.56396079,23.95617866668701,0.56396079Q24.14484976668701,0.56396079,24.27894016668701,0.6980449Q24.41095636668701,0.82852608,24.41095636668701,1.0163392999999998Q24.41095636668701,1.2050102900000002,24.27790256668701,1.3380635L16.48329766668701,9.1326694L24.277903566687012,16.927279Q24.41095636668701,17.060331,24.41095636668701,17.249001Z" fill-rule="evenodd" fill="#FF6B35" fill-opacity="1"/></g></svg>