<svg xmlns="http://www.w3.org/2000/svg" xmlns:xlink="http://www.w3.org/1999/xlink" fill="none" version="1.1" width="24" height="24" viewBox="0 0 24 24"><defs><clipPath id="master_svg0_2_8773"><rect x="0" y="0" width="24" height="24" rx="0"/></clipPath></defs><g clip-path="url(#master_svg0_2_8773)"><path d="M20.7374267578125,8.5219488421875C20.2007074578125,8.5219488421875,19.7647704578125,8.0860109421875,19.7647704578125,7.5492920421875L19.7647704578125,5.1774168421875C19.7647704578125,4.6641359421874995,19.3475832578125,4.2469482421875,18.8343014578125,4.2469482421875L16.4366455078125,4.2469482421875C15.8999261878125,4.2469482421875,15.4639892578125,3.8110106421875,15.4639892578125,3.2742919921875C15.4639892578125,2.7375733821875,15.8999261878125,2.3016357421875,16.4366455078125,2.3016357421875L18.8343014578125,2.3016357421875C20.4186758578125,2.3016357421875,21.7100830578125,3.5906982421875,21.7100830578125,5.1774168421875L21.7100830578125,7.5492916421875C21.7100830578125,8.0860099421875,21.2741460578125,8.521947342187499,20.7374267578125,8.5219488421875Z" fill="#333333" fill-opacity="1" style="mix-blend-mode:passthrough"/><path d="M11.9977290671875,13.0053963828125C11.7492914171875,13.0053963828125,11.5008537771875,12.9093023828125,11.3110105971875,12.7194575828125C10.9313228131875,12.3397702828125,10.9313228131875,11.7233638828125,11.3110105971875,11.3436765828125L19.497730217187502,3.1569578628125C19.8774175171875,2.7772704358125,20.4938240171875,2.7772704358125,20.8735113171875,3.1569578628125C21.2531991171875,3.5366452928125,21.2531991171875,4.1530515828125,20.8735113171875,4.5327390828125L12.6844482171875,12.7218007828125C12.4946050171875,12.9116443828125,12.2461667171875,13.0053943828125,11.9977290671875,13.0053963828125Z" fill="#333333" fill-opacity="1" style="mix-blend-mode:passthrough"/><path d="M11.9835205078125,21.7547607421875C6.6210208078125,21.7547607421875,2.2569580078125,17.3906977421875,2.2569580078125,12.0281982421875C2.2569580078125,6.6656985421875,6.6210208078125,2.3016357421875,11.9835205078125,2.3016357421875C12.5202400078125,2.3016357421875,12.9561770078125,2.7375732021875,12.9561770078125,3.2742919921875C12.9561770078125,3.8110106421875,12.5202400078125,4.2469482421875,11.9835205078125,4.2469482421875C7.6921139078125,4.2469482421875,4.2022705078125,7.7367916421875,4.2022705078125,12.0281982421875C4.2022705078125,16.3196047421875,7.6921139078125,19.8094477421875,11.9835205078125,19.8094477421875C16.2749270078125,19.8094477421875,19.7647700078125,16.3196047421875,19.7647700078125,12.0281982421875C19.7647700078125,11.4914798421875,20.2007060078125,11.0555419421875,20.7374270078125,11.0555419421875C21.2741470078125,11.0555419421875,21.7100830078125,11.4914798421875,21.7100830078125,12.0281982421875C21.7100830078125,17.3906977421875,17.3483640078125,21.7547607421875,11.9835205078125,21.7547607421875Z" fill="#374151" fill-opacity="1" style="mix-blend-mode:passthrough"/></g></svg>